<?xml version="1.0" encoding="utf-8"?>
<!-- Generator: Adobe Illustrator 25.2.0, SVG Export Plug-In . SVG Version: 6.00 Build 0)  -->
<svg version="1.1" id="Layer_1" xmlns="http://www.w3.org/2000/svg" xmlns:xlink="http://www.w3.org/1999/xlink" x="0px" y="0px"
	 viewBox="0 0 792 612" style="enable-background:new 0 0 792 612;" xml:space="preserve">
<style type="text/css">
	.st0{fill:#FFFFFF;}
</style>
<path class="st0" d="M396.38,201.36c-4.54-9.57-22.02-43.43-62.25-61.18c-9.63-4.25-40.8-17.47-78.88-6.73
	c-34.83,9.83-54.23,33.62-60.54,42.19c-29.06,39.51-21.65,83.93-19.72,95.54c1.21,7.3,4.61,24,18.34,49.07
	c16.48,30.09,39.48,56.98,106.39,108.69c24.14,18.66,57.18,43,98.14,69.71c34.21-18.38,60.95-36.98,80.25-51.82
	c24.61-18.91,42.62-35.92,55.03-47.69c18.38-17.45,33.29-33.21,44.48-45.63c6.78-7.47,6.58-18.84,0-25.68
	c-5.97-6.21-15.94-7.4-23.62-2.52c-21.17,20.64-42.34,41.27-63.52,61.91c-2.23,2.3-5.89,2.32-8.03,0.23
	c-1.95-1.9-2.2-5.13-0.46-7.45c48.99-49.95,97.99-99.9,146.98-149.85c4.77-8,3.4-18.09-2.98-24.08c-5.51-5.16-13.88-6.46-21.1-3.21
	c-40.24,40.55-80.48,81.1-120.73,121.64c-3.01,2.71-7.48,2.21-9.52-0.46c-1.63-2.14-1.54-5.49,0.46-7.91
	c43.03-43.87,86.06-87.75,129.1-131.62c6.22-7.23,6.28-17.83,0.46-24.76c-6.34-7.55-18.1-8.88-26.37-2.52
	c-43.18,44.25-86.37,88.51-129.55,132.76c-2.28,2.39-6.1,2.48-8.48,0.23c-2.36-2.23-2.5-6.02-0.29-8.43
	c39.97-40.89,79.94-81.77,119.9-122.66c5.74-7.72,4.84-18.39-1.68-24.61c-5.77-5.51-14.88-6.53-22.17-2.29
	c-40.6,40.97-81.2,81.94-121.8,122.9c-3.06,2.3-7.14,1.92-9.29-0.46c-1.58-1.76-1.96-4.45-1.03-6.88
	c27.75-28.62,55.49-57.25,83.24-85.87c6.41-7.89,5.42-19.35-1.72-25.68c-6.48-5.75-16.64-6.04-23.85-0.34
	C439.87,157.71,418.12,179.54,396.38,201.36z"/>
</svg>
